<?xml version="1.0" encoding="UTF-8" standalone="no"?>
<!-- Created with Inkscape (http://www.inkscape.org/) -->

<svg
   xmlns:dc="http://purl.org/dc/elements/1.1/"
   xmlns:cc="http://creativecommons.org/ns#"
   xmlns:rdf="http://www.w3.org/1999/02/22-rdf-syntax-ns#"
   xmlns:svg="http://www.w3.org/2000/svg"
   xmlns="http://www.w3.org/2000/svg"
   xmlns:xlink="http://www.w3.org/1999/xlink"
   xmlns:sodipodi="http://sodipodi.sourceforge.net/DTD/sodipodi-0.dtd"
   xmlns:inkscape="http://www.inkscape.org/namespaces/inkscape"
   sodipodi:docname="gis-logo.svg"
   inkscape:version="0.91 r13725"
   version="1.1"
   id="svg3455"
   viewBox="0 0 180 99.000007"
   height="1.1in"
   width="2in"
   inkscape:export-filename="/home/kmarschke/git/msd/gis-home/htdocs/img/gis-logo.png"
   inkscape:export-xdpi="500"
   inkscape:export-ydpi="500">
  <sodipodi:namedview
     units="in"
     fit-margin-bottom="0"
     fit-margin-right="0"
     fit-margin-left="0"
     fit-margin-top="0"
     inkscape:window-maximized="1"
     inkscape:window-y="0"
     inkscape:window-x="1920"
     inkscape:window-height="1026"
     inkscape:window-width="1920"
     showgrid="true"
     inkscape:current-layer="layer1"
     inkscape:document-units="px"
     inkscape:cy="68.437217"
     inkscape:cx="89.390795"
     inkscape:zoom="4"
     inkscape:pageshadow="2"
     inkscape:pageopacity="0.0"
     borderopacity="1.0"
     bordercolor="#666666"
     pagecolor="#ffffff"
     id="base"
     inkscape:snap-global="true"
     inkscape:snap-page="true"
     inkscape:snap-others="true"
     inkscape:snap-bbox="true"
     inkscape:snap-grids="true"
     inkscape:object-nodes="false"
     inkscape:snap-smooth-nodes="false"
     inkscape:snap-to-guides="true"
     inkscape:object-paths="false"
     inkscape:snap-intersection-paths="true"
     inkscape:snap-object-midpoints="false"
     inkscape:snap-midpoints="false"
     showguides="true"
     inkscape:guide-bbox="true"
     inkscape:snap-nodes="true"
     inkscape:bbox-nodes="true"
     inkscape:bbox-paths="true">
    <inkscape:grid
       type="xygrid"
       id="grid4795"
       spacingx="1.5"
       spacingy="1.5"
       enabled="false" />
  </sodipodi:namedview>
  <defs
     id="defs3457">
    <linearGradient
       inkscape:collect="always"
       id="linearGradient4624">
      <stop
         style="stop-color:#999999;stop-opacity:1"
         offset="0"
         id="stop4626" />
      <stop
         style="stop-color:#e6e6e6;stop-opacity:0;"
         offset="1"
         id="stop4628" />
    </linearGradient>
    <linearGradient
       inkscape:collect="always"
       id="linearGradient4541">
      <stop
         style="stop-color:#008000;stop-opacity:1;"
         offset="0"
         id="stop4543" />
      <stop
         style="stop-color:#008000;stop-opacity:0;"
         offset="1"
         id="stop4545" />
    </linearGradient>
    <linearGradient
       inkscape:collect="always"
       xlink:href="#linearGradient4541"
       id="linearGradient4547"
       x1="879.64978"
       y1="221.24377"
       x2="884.59955"
       y2="150.17955"
       gradientUnits="userSpaceOnUse"
       gradientTransform="matrix(0.89663737,0,0,0.54802218,104.35664,196.9459)" />
    <linearGradient
       inkscape:collect="always"
       xlink:href="#linearGradient4624"
       id="linearGradient4630"
       x1="1022.8389"
       y1="14.415043"
       x2="1018.8846"
       y2="91.263329"
       gradientUnits="userSpaceOnUse"
       gradientTransform="matrix(0.71234366,0,0,0.71234366,182.39952,214.61177)" />
  </defs>
  <metadata
     id="metadata3460">
    <rdf:RDF>
      <cc:Work
         rdf:about="">
        <dc:format>image/svg+xml</dc:format>
        <dc:type
           rdf:resource="http://purl.org/dc/dcmitype/StillImage" />
        <dc:title></dc:title>
      </cc:Work>
    </rdf:RDF>
  </metadata>
  <g
     inkscape:label="Layer 1"
     inkscape:groupmode="layer"
     id="layer1"
     transform="translate(-814.59595,-210.27857)">
    <path
       id="path4603"
       style="fill:url(#linearGradient4630);fill-opacity:1;fill-rule:evenodd;stroke:none;stroke-width:1px;stroke-linecap:butt;stroke-linejoin:miter;stroke-opacity:1"
       d="m 954.28728,300.17576 -7.21234,0.0256 m -86.29368,-0.0256 7.21229,0.0256 m -7.21229,-0.0256 c 8.46566,-115.06222 85.04038,-115.06222 93.50602,0 m -86.29373,0.0256 c 7.15971,-109.26946 71.92162,-109.26946 79.08139,0"
       inkscape:connector-curvature="0" />
    <path
       style="color:#000000;font-style:normal;font-variant:normal;font-weight:normal;font-stretch:normal;font-size:medium;line-height:normal;font-family:sans-serif;text-indent:0;text-align:start;text-decoration:none;text-decoration-line:none;text-decoration-style:solid;text-decoration-color:#000000;letter-spacing:normal;word-spacing:normal;text-transform:none;direction:ltr;block-progression:tb;writing-mode:lr-tb;baseline-shift:baseline;text-anchor:start;white-space:normal;clip-rule:nonzero;display:inline;overflow:visible;visibility:visible;opacity:1;isolation:auto;mix-blend-mode:normal;color-interpolation:sRGB;color-interpolation-filters:linearRGB;solid-color:#000000;solid-opacity:1;fill:url(#linearGradient4547);fill-opacity:1;fill-rule:evenodd;stroke:none;stroke-width:0.5;stroke-linecap:butt;stroke-linejoin:miter;stroke-miterlimit:4;stroke-dasharray:none;stroke-dashoffset:0;stroke-opacity:1;color-rendering:auto;image-rendering:auto;shape-rendering:auto;text-rendering:auto;enable-background:accumulate"
       d="m 814.59595,277.7673 0,0.274 15.99413,0 c -3.36486,0.24837 -8.86097,0.69001 -15.99413,1.38398 l 0,0.28043 c 12.40069,-1.20828 19.90472,-1.66168 19.9502,-1.66441 l 16.21828,0 c -6.06836,0.44792 -19.02216,1.53512 -36.16848,3.5996 l 0,0.51057 22.64361,0 c -6.98523,0.87439 -14.60787,1.91971 -22.64361,3.13079 l 0,0.28258 c 8.94382,-1.34766 17.33166,-2.47775 24.96051,-3.41337 l 17.85744,0 c -8.32486,1.04209 -17.51775,2.3112 -27.2879,3.83616 l -15.53005,0 0,0.274 13.77003,0 c -4.47824,0.70836 -9.08371,1.47787 -13.77003,2.29806 l 0,0.28472 c 5.32201,-0.93187 10.53546,-1.79415 15.58609,-2.58278 l 18.3583,0 c -7.1746,1.13488 -14.6462,2.40792 -22.31612,3.83616 l -11.62827,0 0,0.27402 10.18349,0 c -3.36236,0.6326 -6.76014,1.29507 -10.18349,1.98658 l 0,0.29326 c 3.93618,-0.79878 7.84174,-1.56235 11.69308,-2.27984 l 18.66475,0 c -6.28103,1.18174 -12.68503,2.468 -19.15686,3.86399 l -11.20097,0 0,0.274 9.92257,0 c -0.28849,0.0627 -0.57467,0.12193 -0.86338,0.18517 -3.00816,0.6589 -6.03085,1.35055 -9.05919,2.06045 l 0,0.29647 c 3.07833,-0.72272 6.15213,-1.42922 9.20979,-2.09895 0.691,-0.15136 1.37692,-0.29432 2.06648,-0.44314 l 18.82064,0 c -0.28849,0.0627 -0.57467,0.12193 -0.86336,0.18517 -5.20916,1.14098 -10.4577,2.36146 -15.71394,3.65097 l -13.51961,0 0,0.27402 12.39357,0 c -4.13353,1.02249 -8.26764,2.10581 -12.39357,3.22605 l 0,0.29544 c 4.5282,-1.23012 9.06699,-2.40772 13.6037,-3.52149 l 18.96421,0 c -4.89064,1.20978 -9.78458,2.4905 -14.66143,3.83616 l -17.90648,0 0,0.27401 16.91878,0 c -4.39606,1.22217 -8.77427,2.49799 -13.11858,3.83614 l -3.8002,0 0,0.27404 2.89831,0 c -0.96883,0.30057 -1.93325,0.6086 -2.89831,0.91514 l 0,0.31255 c 1.30043,-0.41383 2.60323,-0.82466 3.91054,-1.22769 l 19.16212,0 c -2.54904,0.79086 -5.08343,1.60593 -7.60392,2.43826 l 0.96494,0 c 2.53649,-0.83246 5.08641,-1.64756 7.6512,-2.43826 l 19.16212,0 c -2.54902,0.79086 -5.08341,1.60593 -7.60392,2.43826 l 0.96495,0 c 2.53648,-0.83246 5.08639,-1.64756 7.6512,-2.43826 l 15.12722,0 c -2.54904,0.79086 -5.0834,1.60593 -7.60389,2.43826 l 0.96494,0 c 2.53644,-0.83246 5.08643,-1.64756 7.65116,-2.43826 l 19.16222,0 c -2.54897,0.79086 -5.08345,1.60593 -7.60391,2.43826 l 0.96495,0 c 2.53652,-0.83246 5.08639,-1.64756 7.65117,-2.43826 l 25.8869,0 c -2.54904,0.79086 -5.08352,1.60593 -7.60392,2.43826 l 0.96497,0 c 2.53645,-0.83246 5.0863,-1.64756 7.65116,-2.43826 l 19.1621,0 c -2.54903,0.79086 -5.08337,1.60593 -7.60399,2.43826 l 0.96505,0 c 2.53644,-0.83246 5.08638,-1.64756 7.65115,-2.43826 l 19.16211,0 c -2.54904,0.79086 -5.08338,1.60593 -7.60384,2.43826 l 0.96489,0 c 2.53652,-0.83246 5.08638,-1.64756 7.65124,-2.43826 l 19.16211,0 c -2.54904,0.79086 -5.08347,1.60593 -7.60401,2.43826 l 0.96497,0 c 2.53652,-0.83246 5.08647,-1.64756 7.65124,-2.43826 l 12.00478,0 0,-0.27404 -11.10289,0 c 3.67974,-1.12628 7.3857,-2.20111 11.10289,-3.24423 l 0,-0.30611 c -4.05816,1.13656 -8.10216,2.31423 -12.11511,3.55034 l -19.16209,0 c 4.37027,-1.33765 8.77295,-2.61532 13.19387,-3.83614 l 18.08333,0 0,-0.27401 -17.09569,0 c 4.91901,-1.34816 9.85366,-2.62569 14.78402,-3.83616 l 2.31167,0 0,-0.27402 -1.18557,0 c 0.39559,-0.0963 0.7901,-0.18593 1.18557,-0.28148 l 0,-0.29114 c -0.79897,0.1929 -1.59616,0.37649 -2.39568,0.57262 l -18.96432,0 c 4.90114,-1.19335 9.79527,-2.32868 14.65447,-3.393 0.69107,-0.15136 1.37706,-0.29432 2.06654,-0.44314 l 4.63899,0 0,-0.274 -3.36234,0 c 1.12441,-0.24049 2.24248,-0.47049 3.36234,-0.70431 l 0,-0.29221 c -1.56759,0.32698 -3.13795,0.6565 -4.71432,0.99652 l -18.82241,0 c 6.5284,-1.39612 12.9889,-2.68553 19.31458,-3.86399 l 4.22215,0 0,-0.27402 -2.7266,0 c 0.91419,-0.1685 1.81833,-0.32929 2.7266,-0.49343 l 0,-0.29114 c -1.42286,0.25693 -2.84975,0.51693 -4.287,0.78457 l -25.33877,0 c 7.77093,-1.43218 15.32866,-2.70519 22.57175,-3.83616 l 7.05402,0 0,-0.274 -5.29219,0 c 1.79391,-0.2764 3.54114,-0.53414 5.29219,-0.79314 l 0,-0.2847 c -2.33421,0.34502 -4.70077,0.7018 -7.11,1.07784 l -18.35658,0 c 9.12967,-1.40665 17.6413,-2.56412 25.46658,-3.54288 l 0,-0.29328 c -8.32402,1.04201 -17.51554,2.31142 -27.28436,3.83616 l -14.3217,0 c 10.02595,-1.54474 19.35097,-2.80156 27.78705,-3.83616 l 13.81901,0 0,-0.27401 -11.5495,0 c 4.142,-0.49751 7.93441,-0.91818 11.5495,-1.30583 l 0,-0.27937 c -4.28341,0.45887 -8.85078,0.97052 -13.8646,1.5852 l -17.85929,0 c 13.82159,-1.66011 24.79269,-2.6655 31.72389,-3.23248 l 0,-0.27613 c -7.24615,0.58736 -18.95951,1.65989 -34.03899,3.50861 l -17.85914,0 c 23.93083,-2.87436 39.72732,-3.83223 39.7935,-3.83616 l 12.10463,0 0,-0.274 -180,0 z m 40.12452,0.274 22.94304,0 c -6.30555,0.46543 -19.99588,1.61019 -38.15259,3.83616 l -24.58399,0 c 23.93084,-2.87436 39.72735,-3.83223 39.79354,-3.83616 z m 26.89913,0 16.2183,0 c -6.30554,0.46543 -19.99593,1.61019 -38.15264,3.83616 l -17.8592,0 c 23.93084,-2.87436 39.7273,-3.83223 39.79354,-3.83616 z m 20.17438,0 16.21831,0 c -6.30554,0.46543 -19.99593,1.61019 -38.15266,3.83616 l -17.85922,0 c 23.9309,-2.87436 39.7274,-3.83223 39.79357,-3.83616 z m 20.17439,0 16.21824,0 c -6.30555,0.46543 -19.99594,1.61019 -38.15268,3.83616 l -17.85919,0 c 23.93089,-2.87436 39.72738,-3.83223 39.79363,-3.83616 z m 20.17432,0 16.21824,0 c -6.30554,0.46543 -19.99586,1.61019 -38.15254,3.83616 l -17.85927,0 c 23.9309,-2.87436 39.72732,-3.83223 39.79357,-3.83616 z m 20.17432,0 16.21831,0 c -6.30562,0.46543 -19.99594,1.61019 -38.15261,3.83616 l -17.8592,0 c 23.93083,-2.87436 39.7274,-3.83223 39.7935,-3.83616 z m -102.58622,4.11017 17.85748,0 c -8.32488,1.04209 -17.51778,2.3112 -27.28793,3.83616 l -18.35655,0 c 10.02593,-1.54474 19.35099,-2.80156 27.787,-3.83616 z m 20.17433,0 17.85749,0 c -8.32484,1.04209 -17.51779,2.3112 -27.2879,3.83616 l -18.35659,0 c 10.02595,-1.54474 19.35102,-2.80156 27.787,-3.83616 z m 20.17441,0 17.8574,0 c -8.32486,1.04209 -17.51775,2.3112 -27.28791,3.83616 l -18.35655,0 c 10.02587,-1.54474 19.35104,-2.80156 27.78706,-3.83616 z m 20.17431,0 17.85748,0 c -8.32486,1.04209 -17.51775,2.3112 -27.28791,3.83616 l -18.35654,0 c 10.02596,-1.54474 19.35097,-2.80156 27.78697,-3.83616 z m 20.17432,0 17.85748,0 c -8.32479,1.04209 -17.51775,2.3112 -27.28784,3.83616 l -18.35662,0 c 10.02596,-1.54474 19.35098,-2.80156 27.78698,-3.83616 z m 20.17439,0 17.8574,0 c -8.32477,1.04209 -17.5178,2.3112 -27.28791,3.83616 l -18.35647,0 c 10.02588,-1.54474 19.3509,-2.80156 27.78698,-3.83616 z m -110.24618,4.11016 18.35828,0 c -7.17457,1.13488 -14.64617,2.40792 -22.31609,3.83616 l -18.61398,0 c 7.77096,-1.43218 15.32879,-2.70519 22.57179,-3.83616 z m 20.17436,0 18.35832,0 c -7.1746,1.13488 -14.64619,2.40792 -22.31616,3.83616 l -18.61396,0 c 7.77095,-1.43218 15.32878,-2.70519 22.5718,-3.83616 z m 20.17436,0 18.35826,0 c -7.17456,1.13488 -14.64613,2.40792 -22.31608,3.83616 l -18.61397,0 c 7.77095,-1.43218 15.32877,-2.70519 22.57179,-3.83616 z m 20.17439,0 18.35826,0 c -7.17456,1.13488 -14.64621,2.40792 -22.31608,3.83616 l -18.61404,0 c 7.771,-1.43218 15.32877,-2.70519 22.57186,-3.83616 z m 20.17431,0 18.35827,0 c -7.17457,1.13488 -14.64622,2.40792 -22.31608,3.83616 l -18.61397,0 c 7.77092,-1.43218 15.3287,-2.70519 22.57178,-3.83616 z m 20.17432,0 14.32352,0 c -7.17473,1.13488 -14.64623,2.40792 -22.31623,3.83616 l -14.57909,0 c 7.77093,-1.43218 15.3288,-2.70519 22.5718,-3.83616 z m 16.13948,0 18.35832,0 c -7.17469,1.13488 -14.64627,2.40792 -22.31612,3.83616 l -18.614,0 c 7.771,-1.43218 15.32873,-2.70519 22.5718,-3.83616 z m -120.90423,4.11018 18.66478,0 c -6.28105,1.18174 -12.68505,2.468 -19.15688,3.86399 l -18.82239,0 c 6.52845,-1.39612 12.98884,-2.68553 19.31449,-3.86399 z m 20.17432,0 18.66486,0 c -6.28107,1.18174 -12.68513,2.468 -19.15693,3.86399 l -18.82238,0 c 6.52841,-1.39612 12.98883,-2.68553 19.31445,-3.86399 z m 20.17448,0 18.66463,0 c -6.28098,1.18174 -12.68496,2.468 -19.15676,3.86399 l -18.82244,0 c 6.5284,-1.39612 12.98881,-2.68553 19.31457,-3.86399 z m 20.17424,0 18.66478,0 c -6.28106,1.18174 -12.68503,2.468 -19.1569,3.86399 l -18.82236,0 c 6.52846,-1.39612 12.98889,-2.68553 19.31448,-3.86399 z m 20.17439,0 14.62987,0 c -6.28097,1.18174 -12.68509,2.468 -19.1569,3.86399 l -14.78753,0 c 6.5284,-1.39612 12.9889,-2.68553 19.31456,-3.86399 z m 16.13942,0 18.66477,0 c -6.28106,1.18174 -12.68495,2.468 -19.15683,3.86399 l -18.82236,0 c 6.5284,-1.39612 12.98882,-2.68553 19.31442,-3.86399 z m 20.17431,0 25.38966,0 c -6.28107,1.18174 -12.68504,2.468 -19.15685,3.86399 l -25.54722,0 c 6.5284,-1.39612 12.98889,-2.68553 19.31441,-3.86399 z m -117.42797,4.13799 18.82064,0 c -0.28847,0.0627 -0.57465,0.12193 -0.86336,0.18517 -5.20916,1.14098 -10.45768,2.36146 -15.71392,3.65097 l -18.96424,0 c 4.90107,-1.19335 9.79516,-2.32868 14.65443,-3.393 0.69098,-0.15136 1.37691,-0.29432 2.06645,-0.44314 z m 20.17438,0 18.82058,0 c -0.28844,0.0627 -0.57463,0.12193 -0.86332,0.18517 -5.20916,1.14098 -10.45769,2.36146 -15.71396,3.65097 l -18.96421,0 c 4.90106,-1.19335 9.79516,-2.32868 14.65442,-3.393 0.69097,-0.15136 1.3769,-0.29432 2.06649,-0.44314 z m 20.1744,0 18.82063,0 c -0.28857,0.0627 -0.57466,0.12193 -0.86345,0.18517 -5.20909,1.14098 -10.45764,2.36146 -15.71383,3.65097 l -18.96435,0 c 4.90104,-1.19335 9.79515,-2.32868 14.65444,-3.393 0.69098,-0.15136 1.37698,-0.29432 2.06656,-0.44314 z m 20.17424,0 14.78579,0 c -0.28842,0.0627 -0.57465,0.12193 -0.86337,0.18517 -5.20915,1.14098 -10.45765,2.36146 -15.71383,3.65097 l -14.92944,0 c 4.90115,-1.19335 9.7952,-2.32868 14.65445,-3.393 0.691,-0.15136 1.37688,-0.29432 2.0664,-0.44314 z m 16.13955,0 18.82055,0 c -0.28842,0.0627 -0.57464,0.12193 -0.86329,0.18517 -5.20915,1.14098 -10.45773,2.36146 -15.7139,3.65097 l -18.96435,0 c 4.90115,-1.19335 9.79528,-2.32868 14.65443,-3.393 0.69102,-0.15136 1.37699,-0.29432 2.06656,-0.44314 z m 20.17432,0 25.5455,0 c -0.28857,0.0627 -0.57466,0.12193 -0.86345,0.18517 -5.20907,1.14098 -10.45771,2.36146 -15.71396,3.65097 l -25.68893,0 c 4.90107,-1.19335 9.79512,-2.32868 14.65444,-3.393 0.69093,-0.15136 1.37682,-0.29432 2.0664,-0.44314 z m 26.89911,0 18.82063,0 c -0.28841,0.0627 -0.57469,0.12193 -0.86331,0.18517 -5.20922,1.14098 -10.4577,2.36146 -15.71395,3.65097 l -18.96429,0 c 4.90114,-1.19335 9.7952,-2.32868 14.65452,-3.393 0.69094,-0.15136 1.37682,-0.29432 2.0664,-0.44314 z m -121.40858,4.11016 18.96422,0 c -4.89064,1.20978 -9.78456,2.4905 -14.66142,3.83616 l -19.08683,0 c 4.91895,-1.34816 9.85348,-2.62569 14.78403,-3.83616 z m 20.17433,0 18.9643,0 c -4.89067,1.20978 -9.78461,2.4905 -14.66149,3.83616 l -19.08682,0 c 4.91895,-1.34816 9.85349,-2.62569 14.78401,-3.83616 z m 20.17442,0 14.92936,0 c -4.89066,1.20978 -9.7845,2.4905 -14.66137,3.83616 l -15.05207,0 c 4.91897,-1.34816 9.85348,-2.62569 14.78408,-3.83616 z m 16.13939,0 18.96428,0 c -4.89058,1.20978 -9.78457,2.4905 -14.66137,3.83616 l -19.08689,0 c 4.91893,-1.34816 9.85345,-2.62569 14.78398,-3.83616 z m 20.17439,0 25.689,0 c -4.89059,1.20978 -9.78456,2.4905 -14.66143,3.83616 l -25.81162,0 c 4.91892,-1.34816 9.85353,-2.62569 14.78405,-3.83616 z m 26.89913,0 18.96427,0 c -4.89067,1.20978 -9.78457,2.4905 -14.66153,3.83616 l -19.08681,0 c 4.919,-1.34816 9.85353,-2.62569 14.78407,-3.83616 z m 20.1744,0 18.96425,0 c -4.8908,1.20978 -9.78456,2.4905 -14.66143,3.83616 l -19.0869,0 c 4.91893,-1.34816 9.85353,-2.62569 14.78408,-3.83616 z m -139.50779,4.11017 19.08684,0 c -4.39608,1.22217 -8.77428,2.49799 -13.11859,3.83614 l -19.16212,0 c 4.37032,-1.33765 8.77297,-2.61532 13.19387,-3.83614 z m 20.17436,0 19.08683,0 c -4.39605,1.22217 -8.77428,2.49799 -13.1186,3.83614 l -19.16212,0 c 4.3703,-1.33765 8.77295,-2.61532 13.19389,-3.83614 z m 20.17436,0 15.05202,0 c -4.39617,1.22217 -8.77436,2.49799 -13.11868,3.83614 l -15.12723,0 c 4.37029,-1.33765 8.77298,-2.61532 13.19389,-3.83614 z m 16.13953,0 19.08675,0 c -4.39599,1.22217 -8.77433,2.49799 -13.11854,3.83614 l -19.16219,0 c 4.37031,-1.33765 8.77296,-2.61532 13.19398,-3.83614 z m 20.17431,0 25.81162,0 c -4.39606,1.22217 -8.77425,2.49799 -13.11859,3.83614 l -25.88692,0 c 4.37029,-1.33765 8.77296,-2.61532 13.19389,-3.83614 z m 26.89912,0 19.08681,0 c -4.39605,1.22217 -8.77424,2.49799 -13.11868,3.83614 l -19.16203,0 c 4.37038,-1.33765 8.77296,-2.61532 13.1939,-3.83614 z m 20.1743,0 19.08683,0 c -4.39606,1.22217 -8.77424,2.49799 -13.11852,3.83614 l -19.16211,0 c 4.3702,-1.33765 8.77288,-2.61532 13.1938,-3.83614 z m 38.25773,6.40179 c -0.14876,0.049 -0.29793,0.0974 -0.44658,0.14665 l 0.44658,0 0,-0.14665 z"
       id="path4746-7-9"
       inkscape:connector-curvature="0" />
    <g
       id="g4585"
       transform="matrix(0.55836377,0,0,0.55836377,396.82702,162.70617)">
      <path
         sodipodi:nodetypes="sscccccsscs"
         inkscape:connector-curvature="0"
         id="path4337-3"
         d="m 810.54256,124.14605 c -1.97346,2.13539 -3.20955,5.24604 -3.16156,8.17193 0.10028,6.11428 2.81853,8.42885 7.16555,16.84395 1.56588,3.70299 3.20019,7.62123 4.75456,14.11068 0.21602,0.95723 0.42668,1.84638 0.52414,1.92342 0.0974,0.077 0.30812,-0.81522 0.52414,-1.77245 1.55436,-6.48944 3.18869,-10.40457 4.75455,-14.10755 4.34705,-8.41513 7.06529,-10.72972 7.16556,-16.84397 0.048,-2.9259 -1.19118,-6.03965 -3.16461,-8.17505 -2.25434,-2.43932 -5.65455,-4.24459 -9.27964,-4.32007 -3.62507,-0.0755 -7.02837,1.7298 -9.28269,4.16911 z"
         style="display:inline;opacity:1;fill:#78b9e7;fill-opacity:1;stroke:none;stroke-width:1.90815818;stroke-miterlimit:4;stroke-dasharray:none;stroke-opacity:1" />
      <ellipse
         ry="4.8273053"
         rx="4.7612305"
         cy="132.54533"
         cx="819.8252"
         id="path3049"
         style="display:inline;opacity:1;fill:#ffffff;fill-opacity:1;stroke:none;stroke-width:0" />
    </g>
    <text
       sodipodi:linespacing="125%"
       id="text4136"
       y="263.74658"
       x="885.31732"
       style="font-style:normal;font-weight:normal;font-size:12.42667961px;line-height:125%;font-family:sans-serif;letter-spacing:0px;word-spacing:0px;fill:#000000;fill-opacity:1;stroke:none;stroke-width:1px;stroke-linecap:butt;stroke-linejoin:miter;stroke-opacity:1"
       xml:space="preserve"
       transform="scale(0.99313258,1.0069149)"><tspan
         style="font-style:normal;font-variant:normal;font-weight:normal;font-stretch:normal;font-family:Sawasdee;-inkscape-font-specification:Sawasdee;stroke:none"
         y="263.74658"
         x="885.31732"
         id="tspan4138"
         sodipodi:role="line">St. Louis</tspan></text>
    <text
       sodipodi:linespacing="125%"
       id="text4140"
       y="281.02405"
       x="886.0307"
       style="font-style:normal;font-weight:normal;font-size:7.05383635px;line-height:125%;font-family:sans-serif;letter-spacing:0px;word-spacing:0px;fill:#000000;fill-opacity:1;stroke:none;stroke-width:1px;stroke-linecap:butt;stroke-linejoin:miter;stroke-opacity:1"
       xml:space="preserve"
       transform="scale(0.99313258,1.0069149)"><tspan
         style="font-style:normal;font-variant:normal;font-weight:normal;font-stretch:normal;font-family:Sawasdee;-inkscape-font-specification:Sawasdee;stroke:none"
         y="281.02405"
         x="886.0307"
         id="tspan4142"
         sodipodi:role="line">Geographic Information Systems</tspan></text>
    <text
       sodipodi:linespacing="125%"
       id="text4136-3"
       y="273.04678"
       x="885.96674"
       style="font-style:normal;font-weight:normal;font-size:8.9522934px;line-height:125%;font-family:sans-serif;letter-spacing:0px;word-spacing:0px;fill:#000000;fill-opacity:1;stroke:none;stroke-width:1px;stroke-linecap:butt;stroke-linejoin:miter;stroke-opacity:1"
       xml:space="preserve"
       transform="scale(0.99313258,1.0069149)"><tspan
         style="font-style:normal;font-variant:normal;font-weight:normal;font-stretch:normal;font-family:Sawasdee;-inkscape-font-specification:Sawasdee;stroke:none"
         y="273.04678"
         x="885.96674"
         id="tspan4138-6"
         sodipodi:role="line">Metropolitan Sewer District</tspan></text>
    <text
       sodipodi:linespacing="125%"
       id="text4136-7"
       y="282.57489"
       x="824.99658"
       style="font-style:normal;font-weight:normal;font-size:36.95806122px;line-height:125%;font-family:sans-serif;letter-spacing:0px;word-spacing:0px;fill:#000000;fill-opacity:1;stroke:none;stroke-width:1px;stroke-linecap:butt;stroke-linejoin:miter;stroke-opacity:1"
       xml:space="preserve"
       transform="scale(0.99313258,1.0069149)"><tspan
         style="font-style:normal;font-variant:normal;font-weight:normal;font-stretch:normal;font-family:Sawasdee;-inkscape-font-specification:Sawasdee;stroke:none"
         y="282.57489"
         x="824.99658"
         id="tspan4138-5"
         sodipodi:role="line">GIS</tspan></text>
  </g>
</svg>
